<svg width="170" height="170" viewBox="0 0 170 170" fill="none" xmlns="http://www.w3.org/2000/svg">
<path d="M0 16C0 7.16344 7.16344 0 16 0H154C162.837 0 170 7.16344 170 16V170H0V16Z" fill="url(#paint0_linear_1_9)"/>
<path d="M37.225 39.9075L60.41 31.5775V45.4275C58.9554 44.5993 57.3089 44.1674 55.635 44.175C50.74 44.175 46.7725 47.74 46.7725 52.1375C46.7725 56.535 50.74 60.1 55.635 60.1C60.5325 60.1 64.5 56.535 64.5 52.1375V28.73C64.5 25.93 64.5 23.5825 64.28 21.7125C64.2502 21.4534 64.2143 21.195 64.1725 20.9375C63.9625 19.6625 63.5875 18.4675 62.8675 17.4725C62.4161 16.8477 61.8408 16.3226 61.1775 15.93L61.155 15.9175C59.2275 14.765 57.0575 14.8475 54.825 15.3575C52.665 15.8525 49.985 16.8575 46.7 18.095L40.99 20.2425C39.4525 20.82 38.1475 21.31 37.1225 21.8175C36.035 22.3575 35.0975 22.995 34.3925 23.945C33.69 24.895 33.3975 25.92 33.2625 27.03C33.1375 28.075 33.1375 29.345 33.1375 30.8425V50.3275C31.6829 49.4993 30.0364 49.0674 28.3625 49.075C23.4675 49.075 19.5 52.64 19.5 57.0375C19.5 61.435 23.4675 65 28.3625 65C33.26 65 37.2275 61.435 37.2275 57.0375L37.225 39.9075Z" fill="#0B91CA"/>
<path d="M39.0925 126.365C39.0925 125.36 38.3125 124.545 37.35 124.545H33.45C34.2625 120.395 37.78 117.275 42 117.275C46.22 117.275 49.7375 120.4 50.5475 124.55H44.325C43.3625 124.55 42.5825 125.363 42.5825 126.365C42.5825 127.37 43.3625 128.185 44.325 128.185H50.72V131.82H44.325C43.3625 131.82 42.5825 132.635 42.5825 133.638C42.5825 134.643 43.3625 135.458 44.325 135.458H50.5475C49.8525 139.02 47.1625 141.825 43.745 142.548V148.185C43.745 149.188 42.9625 150.003 42 150.003C41.0375 150.003 40.255 149.188 40.255 148.185V142.548C36.8375 141.823 34.1475 139.02 33.455 135.458H37.3475C38.3125 135.458 39.0925 134.643 39.0925 133.638C39.0925 132.635 38.3125 131.82 37.35 131.82H33.28V128.185H37.3475C38.3125 128.185 39.0925 127.37 39.0925 126.368" fill="#0B91CA"/>
<path d="M42 110C33.675 110 26.865 116.753 26.335 125.29C25.4324 124.801 24.4218 124.544 23.395 124.545C19.8625 124.545 17 127.53 17 131.213V136.063C17 139.743 19.8625 142.728 23.395 142.728C23.515 142.728 23.635 142.723 23.7525 142.718V142.728C27.0875 142.728 29.79 139.91 29.79 136.433V126.363C29.79 119.335 35.2575 113.638 42 113.638C48.7425 113.638 54.21 119.335 54.21 126.363V136.433C54.21 139.908 56.91 142.728 60.2475 142.728V142.718C60.365 142.725 60.485 142.728 60.605 142.728C64.1375 142.728 67 139.743 67 136.06V131.21C67 127.53 64.1375 124.545 60.605 124.545C59.545 124.545 58.545 124.815 57.665 125.29C57.135 116.753 50.3225 110 42 110Z" fill="#0B91CA"/>
<path d="M148 66.5H108C105.242 66.5 103 68.7425 103 71.5V106.5C103 109.258 105.242 111.5 108 111.5H148C150.758 111.5 153 109.258 153 106.5V71.5C153 68.7425 150.758 66.5 148 66.5ZM148.002 81.5C148 81.5 148 81.5 148.002 81.5H146.84L140.172 71.5H148L148.002 81.5ZM136.75 96.5L123 104V89L136.75 96.5ZM134.34 81.5L127.673 71.5H134.163L140.83 81.5H134.34ZM128.33 81.5H121.84L115.172 71.5H121.663L128.33 81.5ZM108 71.5H109.163L115.83 81.5H108V71.5Z" fill="#0B91CA"/>
<defs>
<linearGradient id="paint0_linear_1_9" x1="85" y1="170" x2="85" y2="0" gradientUnits="userSpaceOnUse">
<stop stop-color="white"/>
<stop offset="0.624898" stop-color="#CFEBFF"/>
<stop offset="1" stop-color="#9ED6FF"/>
</linearGradient>
</defs>
</svg>
